<svg width="24" height="25" viewBox="0 0 24 25" fill="none" xmlns="http://www.w3.org/2000/svg">
<g id="check">
<path id="Vector" fill-rule="evenodd" clip-rule="evenodd" d="M20.0484 6.85159C20.2734 7.07662 20.3997 7.38179 20.3997 7.69999C20.3997 8.01818 20.2734 8.32335 20.0484 8.54839L10.4484 18.1484C10.2234 18.3734 9.9182 18.4997 9.6 18.4997C9.2818 18.4997 8.97663 18.3734 8.7516 18.1484L3.9516 13.3484C3.73301 13.1221 3.61206 12.8189 3.61479 12.5043C3.61753 12.1897 3.74373 11.8887 3.96622 11.6662C4.18871 11.4437 4.48968 11.3175 4.80432 11.3148C5.11895 11.312 5.42208 11.433 5.6484 11.6516L9.6 15.6032L18.3516 6.85159C18.5766 6.62662 18.8818 6.50024 19.2 6.50024C19.5182 6.50024 19.8234 6.62662 20.0484 6.85159Z" fill="white"/>
</g>
</svg>
