<svg width="101" height="90" viewBox="0 0 101 90" fill="none" xmlns="http://www.w3.org/2000/svg">
<path d="M63.7383 11.6786H60.1669H63.7383ZM60.1669 11.6786H56.5955H60.1669ZM60.1669 11.6786V8.35712V11.6786ZM60.1669 11.6786V15V11.6786Z" fill="#415A77"/>
<path d="M63.7383 11.6786H60.1669M60.1669 11.6786H56.5955M60.1669 11.6786V8.35712M60.1669 11.6786V15" stroke="#415A77" stroke-width="3" stroke-linecap="round"/>
<path d="M52.621 5.69374L51.6963 6.57068C51.9357 6.83036 52.2704 6.97775 52.621 6.97775C52.9716 6.97775 53.3063 6.83036 53.5456 6.57068L52.621 5.69374ZM36.8416 19.5747C37.2034 20.1816 37.9817 20.3759 38.58 20.0091C39.1782 19.642 39.3699 18.8526 39.0081 18.2459L36.8416 19.5747ZM43.4004 23.8352C42.9127 23.3271 42.1112 23.3163 41.6103 23.8111C41.1094 24.3057 41.0987 25.1187 41.5865 25.6267L43.4004 23.8352ZM37.0077 12.1025C37.0077 7.12973 39.1474 4.05567 41.7947 3.00428C44.4361 1.95523 48.1318 2.70398 51.6963 6.57068L53.5456 4.81679C49.5149 0.44422 44.7709 -0.935613 40.8715 0.613042C36.978 2.15937 34.4758 6.40931 34.4758 12.1025H37.0077ZM58.5471 30.3243C61.0662 28.2509 64.0843 25.4721 66.4834 22.3686C68.8581 19.2965 70.7662 15.7283 70.7662 12.1024H68.2343C68.2343 14.8612 66.7501 17.8615 64.491 20.7839C62.2563 23.6748 59.399 26.316 56.9517 28.3303L58.5471 30.3243ZM70.7662 12.1024C70.7662 6.40929 68.264 2.15935 64.3704 0.613042C60.4712 -0.935613 55.7271 0.44422 51.6963 4.81679L53.5456 6.57068C57.1102 2.70398 60.8059 1.95521 63.4473 3.00428C66.0945 4.05565 68.2343 7.12969 68.2343 12.1024H70.7662ZM46.6949 30.3243C48.841 32.0908 50.3293 33.3871 52.621 33.3871V30.8191C51.4008 30.8191 50.6409 30.2649 48.2903 28.3303L46.6949 30.3243ZM56.9517 28.3303C54.6011 30.2649 53.8412 30.8191 52.621 30.8191V33.3871C54.9127 33.3871 56.4009 32.0908 58.5471 30.3243L56.9517 28.3303ZM39.0081 18.2459C37.7472 16.1313 37.0077 14.0499 37.0077 12.1025H34.4758C34.4758 14.6914 35.4488 17.2392 36.8416 19.5747L39.0081 18.2459ZM48.2903 28.3303C46.7425 27.0562 45.0235 25.5259 43.4004 23.8352L41.5865 25.6267C43.296 27.4074 45.0928 29.0057 46.6949 30.3243L48.2903 28.3303Z" fill="#415A77"/>
<path d="M63.7922 42.4345C61.3202 42.0235 55.6301 41.9783 50.8392 43.0223C50.5323 42.8196 50.2246 42.61 49.9213 42.4235C48.9952 41.8563 48.087 41.3768 47.1848 41.0153C46.3102 40.6674 45.4381 40.4277 44.5257 40.3795V40.3756C43.1591 40.2646 41.8324 40.2153 40.6126 40.2153C38.7555 40.2181 37.1712 40.3208 35.9972 40.5167H36.0019C35.8396 40.5414 35.6616 40.5566 35.4683 40.5566C34.4538 40.5687 33.0495 40.0866 31.7754 39.3906C30.9165 38.9303 29.8521 39.1741 29.2794 39.9632L15.2963 59.2466C14.8201 59.9028 14.803 60.792 15.2517 61.4688C15.6065 62.0004 15.9032 62.5523 16.099 63.1045C16.3806 63.8841 16.7882 64.5923 17.2587 65.2815C17.7299 65.9678 18.2678 66.6336 18.8292 67.2693L19.0493 67.4801C19.0493 67.4801 20.0561 68.3104 21.6604 69.631C21.2418 70.2312 21.0117 70.9435 21.0035 71.6942C20.9933 72.6834 21.3679 73.6205 22.0612 74.3287C22.7653 75.048 23.7066 75.4438 24.7128 75.4438C25.4178 75.4438 26.0916 75.2411 26.6786 74.8698C26.2863 75.4615 26.0684 76.1507 26.0602 76.8755C26.0492 77.8646 26.4252 78.8004 27.1177 79.5072C27.8205 80.2279 28.7625 80.6237 29.7694 80.6237C30.5603 80.6237 31.309 80.3662 31.9406 79.9059C30.7913 81.3471 30.8536 83.4498 32.1748 84.8021C32.8778 85.5199 33.8188 85.9158 34.8243 85.9158H34.8251C35.8005 85.9158 36.7225 85.5392 37.4239 84.8527L38.1095 84.1718C37.8225 84.6979 37.6512 85.2814 37.6443 85.8967C37.6341 86.8871 38.0087 87.8228 38.7018 88.5311C39.4054 89.2489 40.3472 89.6448 41.3535 89.6448C42.3281 89.6448 43.2493 89.2696 43.957 88.579L44.3742 88.1556C44.5831 88.3201 44.7736 88.468 44.929 88.5886C45.0564 88.6845 45.1648 88.7668 45.264 88.8381L45.4114 88.9423L45.6202 89.0711C46.4045 89.5012 47.1546 89.6876 47.751 89.8191C48.0483 89.8808 48.3031 89.9232 48.4921 89.9491L48.7223 89.9794L48.7942 89.9863L48.8215 89.989L48.8386 89.9918L48.8571 89.9931L48.8818 89.9945C48.9044 89.9945 48.8934 89.9973 49.0125 90L49.153 89.9945C50.4594 89.8986 51.6963 89.4491 52.7116 88.6739C53.1156 88.3643 53.4692 87.9902 53.7857 87.5808C54.411 87.7835 55.0733 87.904 55.7625 87.904C58.5577 87.9028 60.9101 86.1203 61.8211 83.6408C61.9225 83.6339 62.0233 83.6298 62.1231 83.6038C62.4779 83.6683 62.8376 83.7148 63.2101 83.7148C65.9837 83.7121 68.3311 81.9642 69.2572 79.5173C69.2635 79.5118 69.2695 79.5092 69.2756 79.5049L69.4933 79.5255C73.0764 79.5255 75.9767 76.6224 75.9781 73.0415C75.9802 72.0468 75.8425 70.9469 75.4638 69.8029C77.9229 67.6302 81.5265 64.2737 82.178 62.4517C82.4917 61.5749 84.2556 59.4722 84.7679 58.7555L70.8937 39.6214C69.1242 40.6234 65.6902 42.7524 63.7922 42.4345ZM72.0858 73.0407C72.0838 74.4724 70.9255 75.6313 69.4937 75.634C69.1389 75.634 68.8075 75.5629 68.4986 75.434C68.4678 75.4203 68.4356 75.4175 68.4047 75.4079L66.0004 72.483C65.3922 71.7789 64.327 71.6995 63.6221 72.3076C62.9166 72.9158 62.8386 73.9818 63.4474 74.6873L65.7729 77.5216C65.6242 78.8108 64.5407 79.8204 63.2103 79.8218C62.5787 79.8204 62.0186 79.5958 61.5602 79.219L59.2526 76.4049C58.6436 75.7008 57.5784 75.6228 56.8737 76.2311C56.168 76.8393 56.0906 77.9053 56.6988 78.6092L58.3064 80.6123C58.3037 80.7369 58.2915 80.8616 58.3133 80.9864C58.3414 81.144 58.3544 81.2862 58.3544 81.4178C58.3524 82.8508 57.1935 84.0084 55.7625 84.0111C55.3884 84.0111 55.044 83.9249 54.7262 83.7852L51.9136 80.8288C51.2348 80.1903 50.1677 80.2233 49.5292 80.9027C48.8901 81.5809 48.9231 82.6494 49.6011 83.2864L50.9209 84.8345C50.7887 85.1182 50.6127 85.3743 50.3449 85.5824C50.0017 85.8455 49.5298 86.0262 48.9928 86.0865C48.8361 86.0633 48.6229 86.0276 48.3695 85.9675C48.0551 85.8963 47.7235 85.7798 47.5516 85.6893C47.4921 85.6457 47.34 85.5333 47.1202 85.3604C46.9954 85.2645 46.8538 85.1551 46.6962 85.029C46.9811 83.8317 46.6742 82.5192 45.7503 81.574C45.0467 80.8548 44.1049 80.4589 43.0986 80.4589C42.5328 80.4589 41.9904 80.5986 41.4916 80.8412L41.4766 80.8288L41.4937 80.8096C42.2014 80.1165 42.5973 79.1904 42.6081 78.1986C42.6183 77.2081 42.2423 76.2723 41.5491 75.5655C40.8462 74.8476 39.904 74.4503 38.8983 74.4503C38.1119 74.4503 37.3667 74.705 36.7378 75.16C37.2466 74.5187 37.5421 73.7405 37.551 72.9091C37.562 71.9186 37.1859 70.9828 36.4932 70.276C35.7899 69.5553 34.8481 69.1595 33.8418 69.1595C32.8671 69.1595 31.9457 69.5349 31.2444 70.2225L30.619 70.8445C31.3904 69.4471 31.2124 67.6579 30.0409 66.4607C29.3367 65.7414 28.3949 65.3456 27.3886 65.3456C26.414 65.3456 25.4926 65.7208 24.7899 66.4086L24.3761 66.8237C24.0822 66.5811 23.7938 66.3442 23.539 66.1346C22.5814 65.3481 21.9217 64.8029 21.6567 64.5837C21.2088 64.0727 20.7942 63.559 20.4703 63.0823C20.1223 62.5782 19.8758 62.111 19.7648 61.7945C19.6017 61.337 19.4072 60.9069 19.1956 60.4987L31.4882 43.5483C32.7035 44.0565 34.0329 44.4386 35.4681 44.4484C35.8502 44.4484 36.2414 44.4209 36.6378 44.3553H36.6427C37.4612 44.2156 38.9201 44.1058 40.6122 44.1088C41.7281 44.106 42.9556 44.1526 44.2104 44.2539L44.296 44.2594C44.6043 44.2677 45.1175 44.3773 45.7406 44.6294L45.8817 44.6938C40.6307 47.0651 33.1891 51.6273 30.7436 52.4436C27.9509 53.3738 27.7173 57.0987 34.0007 57.796C40.2853 58.496 45.8707 54.5369 47.2667 53.841C48.2689 53.3397 54.6356 53.952 58.162 54.3383C59.717 55.874 61.0801 57.2987 62.074 58.3755L69.819 67.8446L69.8532 67.8831C70.8457 69.0324 71.3842 69.9651 71.6897 70.7653C71.9921 71.5653 72.0838 72.2557 72.0858 73.0407Z" fill="#415A77"/>
<path d="M100.321 53.245L81.6046 27.4322C81.1517 26.8061 80.2791 26.6691 79.6543 27.1212L71.3641 33.1327C70.7393 33.5848 70.6002 34.4588 71.0537 35.0835L89.7701 60.8963C90.2227 61.5211 91.0954 61.6607 91.7202 61.2087L100.012 55.196C100.635 54.7422 100.775 53.8695 100.321 53.245ZM93.9525 55.5642C92.9127 56.3176 91.4565 56.0848 90.7015 55.0449C89.9473 54.0053 90.1797 52.5503 91.2208 51.7955C92.2612 51.0407 93.7162 51.2735 94.471 52.3118C95.2252 53.353 94.993 54.8094 93.9525 55.5642Z" fill="#415A77"/>
<path d="M29.2249 33.1325L20.933 27.121C20.3097 26.669 19.4364 26.8059 18.983 27.432L0.265966 53.245C-0.187465 53.8697 -0.0464065 54.7424 0.576963 55.1958L8.86721 61.2085C9.49196 61.6606 10.3644 61.5209 10.8165 60.8961L29.5337 35.0834C29.9871 34.4586 29.848 33.5846 29.2249 33.1325ZM23.6841 36.015C22.9299 37.0548 21.4743 37.2877 20.4338 36.5329C19.3926 35.7794 19.1606 34.3217 19.9152 33.2834C20.6692 32.2422 22.125 32.0093 23.1654 32.7643C24.2073 33.5189 24.4375 34.9737 23.6841 36.015Z" fill="#415A77"/>
</svg>
