<svg width="26" height="25" viewBox="0 0 26 25" fill="none" xmlns="http://www.w3.org/2000/svg">
<path fill-rule="evenodd" clip-rule="evenodd" d="M6.25381 2.83512C6.25381 4.30006 5.02469 5.48763 3.5085 5.48763C1.9923 5.48763 0.763184 4.30006 0.763184 2.83512C0.763184 1.37018 1.9923 0.182617 3.5085 0.182617C5.02469 0.182617 6.25381 1.37018 6.25381 2.83512ZM0.763184 7.7612H6.37617V24.4341H0.763184V7.7612ZM21.6652 7.95673C21.6453 7.95066 21.6258 7.94444 21.6063 7.93821C21.5673 7.92574 21.5282 7.91328 21.4864 7.90216C21.4111 7.88549 21.3358 7.87185 21.2589 7.85972C20.9608 7.80212 20.6345 7.7612 20.2518 7.7612C16.9794 7.7612 14.9039 10.0605 14.2199 10.9488V7.7612H8.60693V24.4341H14.2199V15.3398C14.2199 15.3398 18.4618 9.63159 20.2518 13.8241V24.4341H25.8632V13.1829C25.8632 10.6638 24.0764 8.56453 21.6652 7.95673Z" fill="#B0B8BC"/>
</svg>
