<svg width="26" height="25" viewBox="0 0 26 25" fill="none" xmlns="http://www.w3.org/2000/svg">
<path fill-rule="evenodd" clip-rule="evenodd" d="M7.90723 0.182617H17.3197C21.651 0.182617 25.1635 3.57631 25.1635 7.7612V16.8555C25.1635 21.0404 21.651 24.4341 17.3197 24.4341H7.90723C3.57591 24.4341 0.0634766 21.0404 0.0634766 16.8555V7.7612C0.0634766 3.57631 3.57591 0.182617 7.90723 0.182617ZM17.3197 22.1605C20.3474 22.1605 22.8104 19.7808 22.8104 16.8555V7.7612C22.8104 4.83587 20.3474 2.45619 17.3197 2.45619H7.90723C4.87954 2.45619 2.4166 4.83587 2.4166 7.7612V16.8555C2.4166 19.7808 4.87954 22.1605 7.90723 22.1605H17.3197ZM6.33848 12.3083C6.33848 8.96013 9.14811 6.24548 12.6135 6.24548C16.0788 6.24548 18.8885 8.96013 18.8885 12.3083C18.8885 15.6566 16.0788 18.3712 12.6135 18.3712C9.14811 18.3712 6.33848 15.6566 6.33848 12.3083ZM8.6916 12.3083C8.6916 14.397 10.4517 16.0976 12.6135 16.0976C14.7752 16.0976 16.5354 14.397 16.5354 12.3083C16.5354 10.2182 14.7752 8.51906 12.6135 8.51906C10.4517 8.51906 8.6916 10.2182 8.6916 12.3083ZM20.1953 5.79077C20.1953 6.23695 19.8209 6.59865 19.3592 6.59865C18.8974 6.59865 18.523 6.23695 18.523 5.79077C18.523 5.3446 18.8974 4.9829 19.3592 4.9829C19.8209 4.9829 20.1953 5.3446 20.1953 5.79077Z" fill="#B0B8BC"/>
</svg>
