<svg width="333" height="79" viewBox="0 0 333 79" fill="none" xmlns="http://www.w3.org/2000/svg">
<path d="M55.9482 10.2512H52.8133H55.9482ZM52.8133 10.2512H49.6783H52.8133ZM52.8133 10.2512V7.33569V10.2512ZM52.8133 10.2512V13.1666V10.2512Z" fill="#415A77"/>
<path d="M55.9482 10.2512H52.8133M52.8133 10.2512H49.6783M52.8133 10.2512V7.33569M52.8133 10.2512V13.1666" stroke="#415A77" stroke-width="3" stroke-linecap="round"/>
<path d="M46.1895 4.99784L45.3778 5.7676C45.5879 5.99554 45.8817 6.12491 46.1895 6.12491C46.4972 6.12491 46.791 5.99554 47.0011 5.7676L46.1895 4.99784ZM32.3387 17.1823C32.6563 17.715 33.3395 17.8856 33.8646 17.5635C34.3897 17.2413 34.558 16.5484 34.2404 16.0158L32.3387 17.1823ZM38.0959 20.922C37.6677 20.476 36.9642 20.4666 36.5245 20.9009C36.0848 21.335 36.0755 22.0487 36.5036 22.4945L38.0959 20.922ZM32.4845 10.6233C32.4845 6.25831 34.3627 3.55997 36.6864 2.63709C39.005 1.71626 42.2489 2.37349 45.3778 5.7676L47.0011 4.22807C43.463 0.389927 39.2988 -0.82126 35.8761 0.538114C32.4584 1.89545 30.2621 5.62595 30.2621 10.6233H32.4845ZM51.3913 26.618C53.6025 24.798 56.2517 22.3588 58.3576 19.6346C60.4421 16.9381 62.1169 13.806 62.1169 10.6232H59.8945C59.8945 13.0448 58.5917 15.6784 56.6087 18.2437C54.6472 20.7812 52.1391 23.0996 49.9909 24.8677L51.3913 26.618ZM62.1169 10.6232C62.1169 5.62593 59.9205 1.89543 56.5029 0.538114C53.0802 -0.82126 48.916 0.389927 45.3778 4.22807L47.0011 5.7676C50.13 2.37349 53.374 1.71624 55.6926 2.63709C58.0162 3.55996 59.8945 6.25828 59.8945 10.6232H62.1169ZM40.9877 26.618C42.8715 28.1686 44.1779 29.3064 46.1895 29.3064V27.0523C45.1184 27.0523 44.4514 26.5659 42.3881 24.8677L40.9877 26.618ZM49.9909 24.8677C47.9276 26.5659 47.2605 27.0523 46.1895 27.0523V29.3064C48.2011 29.3064 49.5074 28.1686 51.3913 26.618L49.9909 24.8677ZM34.2404 16.0158C33.1336 14.1597 32.4845 12.3327 32.4845 10.6233H30.2621C30.2621 12.8958 31.1161 15.1322 32.3387 17.1823L34.2404 16.0158ZM42.3881 24.8677C41.0294 23.7494 39.5206 22.406 38.0959 20.922L36.5036 22.4945C38.0042 24.0576 39.5814 25.4606 40.9877 26.618L42.3881 24.8677Z" fill="#415A77"/>
<path d="M55.9952 37.2481C53.8253 36.8873 48.8306 36.8477 44.6253 37.7641C44.3559 37.5861 44.0859 37.4021 43.8196 37.2385C43.0067 36.7406 42.2095 36.3196 41.4176 36.0023C40.6498 35.6969 39.8843 35.4865 39.0835 35.4443V35.4408C37.8839 35.3434 36.7194 35.3001 35.6486 35.3001C34.0185 35.3025 32.6279 35.3927 31.5973 35.5647H31.6014C31.459 35.5864 31.3028 35.5997 31.1331 35.5997C30.2425 35.6104 29.0099 35.1872 27.8915 34.5762C27.1376 34.1721 26.2033 34.3861 25.7006 35.0789L13.4265 52.0054C13.0085 52.5814 12.9935 53.3619 13.3874 53.956C13.6988 54.4226 13.9592 54.907 14.1312 55.3918C14.3783 56.0761 14.7361 56.6977 15.1491 57.3027C15.5627 57.9051 16.0348 58.4895 16.5277 59.0475L16.7208 59.2326C16.7208 59.2326 17.6046 59.9613 19.0128 61.1205C18.6454 61.6474 18.4434 62.2727 18.4362 62.9316C18.4272 63.7999 18.7561 64.6225 19.3646 65.2441C19.9827 65.8755 20.8089 66.223 21.6922 66.223C22.3109 66.223 22.9024 66.045 23.4177 65.7191C23.0733 66.2385 22.8821 66.8434 22.8748 67.4796C22.8652 68.3479 23.1952 69.1692 23.8031 69.7897C24.42 70.4223 25.2469 70.7697 26.1307 70.7697C26.825 70.7697 27.4822 70.5437 28.0366 70.1396C27.0277 71.4047 27.0824 73.2504 28.2421 74.4374C28.8592 75.0675 29.6852 75.415 30.5678 75.415H30.5685C31.4247 75.415 32.234 75.0844 32.8496 74.4819L33.4515 73.8842C33.1995 74.346 33.0491 74.8582 33.0431 75.3983C33.0341 76.2676 33.363 77.089 33.9714 77.7106C34.5889 78.3408 35.4157 78.6882 36.2989 78.6882C37.1545 78.6882 37.9631 78.3589 38.5842 77.7527L38.9505 77.3811C39.1338 77.5254 39.3011 77.6553 39.4375 77.7612C39.5493 77.8453 39.6444 77.9176 39.7315 77.9802L39.8609 78.0716L40.0442 78.1847C40.7326 78.5622 41.391 78.7258 41.9146 78.8412C42.1755 78.8954 42.3991 78.9326 42.565 78.9554L42.7672 78.9819L42.8303 78.988L42.8542 78.9904L42.8692 78.9928L42.8855 78.994L42.9072 78.9952C42.927 78.9952 42.9174 78.9976 43.0219 79L43.1452 78.9952C44.2919 78.911 45.3777 78.5165 46.2689 77.836C46.6235 77.5642 46.9339 77.2359 47.2117 76.8765C47.7606 77.0545 48.3419 77.1602 48.9469 77.1602C51.4005 77.1591 53.4654 75.5945 54.265 73.418C54.354 73.412 54.4425 73.4084 54.5301 73.3856C54.8415 73.4422 55.1572 73.483 55.4842 73.483C57.9188 73.4806 59.9793 71.9464 60.7922 69.7985C60.7977 69.7937 60.8031 69.7914 60.8084 69.7876L60.9995 69.8058C64.1446 69.8058 66.6905 67.2575 66.6917 64.1143C66.6936 63.2411 66.5727 62.2756 66.2402 61.2714C68.3987 59.3643 71.562 56.418 72.1338 54.8187C72.4092 54.0491 73.9574 52.2034 74.4072 51.5743L62.2287 34.7788C60.6754 35.6583 57.6612 37.5271 55.9952 37.2481ZM63.2751 64.1136C63.2734 65.3702 62.2566 66.3875 60.9998 66.3899C60.6884 66.3899 60.3975 66.3275 60.1264 66.2143C60.0993 66.2023 60.071 66.1998 60.0439 66.1914L57.9335 63.624C57.3996 63.0059 56.4646 62.9363 55.8458 63.47C55.2266 64.0039 55.1581 64.9396 55.6925 65.5589L57.7338 68.0468C57.6033 69.1784 56.6522 70.0646 55.4844 70.0658C54.93 70.0646 54.4383 69.8675 54.036 69.5367L52.0104 67.0666C51.4758 66.4485 50.5408 66.3801 49.9222 66.914C49.3028 67.4479 49.2348 68.3836 49.7687 69.0014L51.1799 70.7597C51.1775 70.8691 51.1668 70.9786 51.1859 71.0881C51.2106 71.2264 51.222 71.3512 51.222 71.4668C51.2202 72.7246 50.203 73.7407 48.9469 73.7431C48.6185 73.7431 48.3162 73.6674 48.0372 73.5448L45.5684 70.9498C44.9726 70.3893 44.0359 70.4183 43.4754 71.0146C42.9144 71.6099 42.9434 72.5479 43.5385 73.1069L44.697 74.4658C44.581 74.7149 44.4265 74.9397 44.1914 75.1223C43.8901 75.3533 43.4759 75.5119 43.0046 75.5648C42.867 75.5445 42.6799 75.5131 42.4574 75.4603C42.1815 75.3979 41.8904 75.2957 41.7395 75.2162C41.6873 75.1779 41.5538 75.0792 41.3608 74.9275C41.2513 74.8433 41.127 74.7473 40.9887 74.6366C41.2387 73.5857 40.9694 72.4335 40.1583 71.6039C39.5408 70.9725 38.7141 70.6251 37.8308 70.6251C37.3342 70.6251 36.858 70.7477 36.4202 70.9606L36.4071 70.9498L36.4221 70.9329C37.0432 70.3245 37.3907 69.5116 37.4002 68.641C37.4092 67.7715 37.0791 66.9502 36.4707 66.3297C35.8537 65.6996 35.0266 65.3509 34.1438 65.3509C33.4535 65.3509 32.7994 65.5744 32.2474 65.9738C32.6941 65.4109 32.9534 64.7278 32.9612 63.998C32.9709 63.1285 32.6408 62.3072 32.0327 61.6867C31.4154 61.0541 30.5886 60.7067 29.7054 60.7067C28.8498 60.7067 28.0411 61.0362 27.4254 61.6398L26.8765 62.1858C27.5535 60.9591 27.3973 59.3886 26.369 58.3377C25.7509 57.7064 24.9242 57.3589 24.0409 57.3589C23.1854 57.3589 22.3766 57.6883 21.7598 58.292L21.3966 58.6564C21.1386 58.4434 20.8855 58.2355 20.6618 58.0515C19.8213 57.3612 19.2422 56.8826 19.0096 56.6902C18.6164 56.2416 18.2525 55.7907 17.9682 55.3723C17.6627 54.9298 17.4463 54.5197 17.3489 54.2419C17.2058 53.8403 17.035 53.4628 16.8493 53.1044L27.6394 38.2257C28.7062 38.6718 29.8732 39.0073 31.1329 39.0159C31.4683 39.0159 31.8117 38.9917 32.1597 38.9341H32.164C32.8824 38.8115 34.163 38.7151 35.6483 38.7177C36.6278 38.7153 37.7053 38.7562 38.8067 38.8452L38.8819 38.85C39.1525 38.8572 39.6029 38.9535 40.1499 39.1747L40.2737 39.2313C35.6645 41.3127 29.1325 45.3173 26.9858 46.0339C24.5345 46.8504 24.3294 50.12 29.8449 50.7321C35.3613 51.3465 40.2641 47.8713 41.4895 47.2605C42.3691 46.8204 47.9577 47.3579 51.0531 47.697C52.4181 49.045 53.6145 50.2956 54.4869 51.2408L61.2854 59.5525L61.3154 59.5863C62.1866 60.5951 62.6593 61.4139 62.9275 62.1163C63.1929 62.8185 63.2734 63.4245 63.2751 64.1136Z" fill="#415A77"/>
<path d="M88.0594 46.7372L71.6307 24.0794C71.2332 23.5298 70.4672 23.4096 69.9188 23.8064L62.6418 29.0831C62.0934 29.4799 61.9713 30.2472 62.3693 30.7956L78.7982 53.4534C79.1955 54.0018 79.9615 54.1244 80.5099 53.7276L87.7881 48.4498C88.3355 48.0515 88.4581 47.2855 88.0594 46.7372ZM82.4694 48.773C81.5567 49.4343 80.2785 49.23 79.6158 48.3172C78.9537 47.4046 79.1577 46.1275 80.0715 45.4649C80.9848 44.8024 82.262 45.0067 82.9245 45.9181C83.5866 46.8321 83.3827 48.1104 82.4694 48.773Z" fill="#415A77"/>
<path d="M25.6529 29.083L18.3746 23.8063C17.8274 23.4095 17.0608 23.5296 16.6628 24.0792L0.233459 46.7373C-0.164553 47.2857 -0.0407346 48.0517 0.506445 48.4497L7.78344 53.7275C8.33183 54.1243 9.09767 54.0017 9.49448 53.4533L25.924 30.7954C26.322 30.247 26.1999 29.4798 25.6529 29.083ZM20.7894 31.6132C20.1273 32.526 18.8497 32.7303 17.9364 32.0678C17.0224 31.4064 16.8187 30.1268 17.4811 29.2155C18.143 28.3015 19.4208 28.0971 20.3341 28.7598C21.2486 29.4222 21.4507 30.6992 20.7894 31.6132Z" fill="#415A77"/>
<path d="M126.661 35.4658V39.8955H110.952V35.4658H126.661ZM112.49 23.1406V53H106.851V23.1406H112.49ZM130.845 23.1406V53H125.205V23.1406H130.845ZM146.144 53.4102C144.462 53.4102 142.951 53.1367 141.611 52.5898C140.271 52.043 139.13 51.2842 138.187 50.3135C137.257 49.3291 136.539 48.1875 136.033 46.8887C135.541 45.5762 135.295 44.168 135.295 42.6641V41.8438C135.295 40.1348 135.541 38.583 136.033 37.1885C136.525 35.7803 137.223 34.5703 138.125 33.5586C139.027 32.5469 140.107 31.7676 141.365 31.2207C142.623 30.6738 144.011 30.4004 145.528 30.4004C147.101 30.4004 148.488 30.667 149.691 31.2002C150.895 31.7197 151.899 32.458 152.706 33.415C153.513 34.3721 154.121 35.5205 154.531 36.8604C154.941 38.1865 155.146 39.6562 155.146 41.2695V43.5459H137.756V39.8135H149.814V39.4033C149.787 38.542 149.623 37.7559 149.322 37.0449C149.021 36.3203 148.557 35.7461 147.928 35.3223C147.299 34.8848 146.485 34.666 145.487 34.666C144.681 34.666 143.977 34.8438 143.375 35.1992C142.787 35.541 142.295 36.0332 141.898 36.6758C141.516 37.3047 141.229 38.0566 141.037 38.9316C140.846 39.8066 140.75 40.7773 140.75 41.8438V42.6641C140.75 43.5938 140.873 44.4551 141.119 45.248C141.379 46.041 141.755 46.7314 142.247 47.3193C142.753 47.8936 143.354 48.3447 144.052 48.6729C144.763 48.9873 145.569 49.1445 146.472 49.1445C147.606 49.1445 148.632 48.9258 149.548 48.4883C150.478 48.0371 151.284 47.374 151.968 46.499L154.695 49.3291C154.23 50.0127 153.602 50.6689 152.809 51.2979C152.029 51.9268 151.086 52.4395 149.979 52.8359C148.871 53.2188 147.593 53.4102 146.144 53.4102ZM170.999 48.2832V38.0498C170.999 37.2979 170.869 36.6484 170.609 36.1016C170.35 35.5547 169.953 35.1309 169.42 34.8301C168.887 34.5293 168.21 34.3789 167.39 34.3789C166.665 34.3789 166.029 34.502 165.482 34.748C164.949 34.9941 164.539 35.3428 164.252 35.7939C163.965 36.2314 163.821 36.7373 163.821 37.3115H158.387C158.387 36.3955 158.605 35.5273 159.043 34.707C159.48 33.873 160.103 33.1348 160.909 32.4922C161.729 31.8359 162.707 31.3232 163.842 30.9541C164.99 30.585 166.275 30.4004 167.697 30.4004C169.379 30.4004 170.876 30.6875 172.188 31.2617C173.515 31.8223 174.554 32.6699 175.306 33.8047C176.071 34.9395 176.454 36.3682 176.454 38.0908V47.7705C176.454 48.8779 176.522 49.8281 176.659 50.6211C176.81 51.4004 177.028 52.0771 177.315 52.6514V53H171.799C171.539 52.4395 171.341 51.7285 171.204 50.8672C171.067 49.9922 170.999 49.1309 170.999 48.2832ZM171.758 39.4854L171.799 42.7051H168.374C167.526 42.7051 166.781 42.7939 166.139 42.9717C165.496 43.1357 164.97 43.3818 164.56 43.71C164.149 44.0244 163.842 44.4072 163.637 44.8584C163.432 45.2959 163.329 45.7949 163.329 46.3555C163.329 46.9023 163.452 47.3945 163.698 47.832C163.958 48.2695 164.327 48.6182 164.806 48.8779C165.298 49.124 165.872 49.2471 166.528 49.2471C167.485 49.2471 168.319 49.0557 169.03 48.6729C169.741 48.2764 170.295 47.7979 170.691 47.2373C171.088 46.6768 171.3 46.1436 171.327 45.6377L172.886 47.9756C172.694 48.5361 172.407 49.1309 172.024 49.7598C171.642 50.3887 171.149 50.9766 170.548 51.5234C169.946 52.0703 169.222 52.5215 168.374 52.877C167.526 53.2324 166.542 53.4102 165.421 53.4102C163.985 53.4102 162.7 53.123 161.565 52.5488C160.431 51.9746 159.535 51.1885 158.879 50.1904C158.223 49.1924 157.895 48.0576 157.895 46.7861C157.895 45.6104 158.113 44.5713 158.551 43.6689C158.988 42.7666 159.638 42.0078 160.499 41.3926C161.36 40.7637 162.427 40.292 163.698 39.9775C164.983 39.6494 166.453 39.4854 168.107 39.4854H171.758ZM187.077 21.5V53H181.643V21.5H187.077ZM202.745 30.8105V34.707H190.03V30.8105H202.745ZM193.435 25.3555H198.869V46.6016C198.869 47.2578 198.958 47.7637 199.136 48.1191C199.313 48.4746 199.58 48.7139 199.936 48.8369C200.291 48.96 200.715 49.0215 201.207 49.0215C201.562 49.0215 201.891 49.001 202.191 48.96C202.492 48.9189 202.745 48.8779 202.95 48.8369L202.971 52.8975C202.52 53.0479 202.007 53.1709 201.433 53.2666C200.872 53.3623 200.236 53.4102 199.525 53.4102C198.309 53.4102 197.242 53.2051 196.326 52.7949C195.41 52.3711 194.699 51.6943 194.193 50.7646C193.688 49.8213 193.435 48.5771 193.435 47.0322V25.3555ZM211.666 21.5V53H206.231V21.5H211.666ZM210.805 41.1055H209.205C209.205 39.5605 209.41 38.1387 209.82 36.8398C210.23 35.541 210.812 34.4131 211.563 33.4561C212.315 32.4854 213.211 31.7334 214.25 31.2002C215.303 30.667 216.465 30.4004 217.736 30.4004C218.83 30.4004 219.821 30.5576 220.71 30.8721C221.612 31.1729 222.385 31.6582 223.027 32.3281C223.67 32.998 224.162 33.873 224.504 34.9531C224.859 36.0195 225.037 37.3184 225.037 38.8496V53H219.582V38.8086C219.582 37.7832 219.432 36.9766 219.131 36.3887C218.83 35.7871 218.399 35.3564 217.839 35.0967C217.292 34.8369 216.615 34.707 215.809 34.707C214.934 34.707 214.182 34.8779 213.553 35.2197C212.924 35.5479 212.404 36.0059 211.994 36.5938C211.598 37.1816 211.297 37.8584 211.092 38.624C210.9 39.3896 210.805 40.2168 210.805 41.1055ZM259.634 48.5703V53H244.622V48.5703H259.634ZM246.324 23.1406V53H240.685V23.1406H246.324ZM268.739 30.8105V53H263.305V30.8105H268.739ZM262.936 25.0068C262.936 24.2002 263.209 23.5303 263.756 22.9971C264.316 22.4639 265.068 22.1973 266.012 22.1973C266.955 22.1973 267.7 22.4639 268.247 22.9971C268.808 23.5303 269.088 24.2002 269.088 25.0068C269.088 25.7998 268.808 26.4629 268.247 26.9961C267.7 27.5293 266.955 27.7959 266.012 27.7959C265.068 27.7959 264.316 27.5293 263.756 26.9961C263.209 26.4629 262.936 25.7998 262.936 25.0068ZM279.219 35.5479V53H273.805V30.8105H278.891L279.219 35.5479ZM278.357 41.1055H276.758C276.771 39.4922 276.99 38.0293 277.414 36.7168C277.838 35.4043 278.433 34.2764 279.198 33.333C279.978 32.3896 280.9 31.665 281.967 31.1592C283.033 30.6533 284.223 30.4004 285.535 30.4004C286.602 30.4004 287.565 30.5508 288.427 30.8516C289.288 31.1523 290.026 31.6309 290.642 32.2871C291.271 32.9434 291.749 33.8047 292.077 34.8711C292.419 35.9238 292.59 37.2227 292.59 38.7676V53H287.135V38.7266C287.135 37.7148 286.984 36.915 286.684 36.3271C286.396 35.7393 285.973 35.3223 285.412 35.0762C284.865 34.8301 284.188 34.707 283.382 34.707C282.548 34.707 281.816 34.8779 281.188 35.2197C280.572 35.5479 280.053 36.0059 279.629 36.5938C279.219 37.1816 278.904 37.8584 278.686 38.624C278.467 39.3896 278.357 40.2168 278.357 41.1055ZM302.782 21.4795V53H297.368V21.4795H302.782ZM316.687 30.8105L307.027 41.6592L301.798 46.9707L300.075 42.7666L304.115 37.6807L310.145 30.8105H316.687ZM311.149 53L304.279 42.6641L307.889 39.1572L317.425 53H311.149Z" fill="#415A77"/>
<line x1="241.5" y1="61.5" x2="318.5" y2="61.5" stroke="#415A77" stroke-width="3" stroke-linecap="round" stroke-dasharray="7 7"/>
</svg>
