<svg width="26" height="25" viewBox="0 0 26 25" fill="none" xmlns="http://www.w3.org/2000/svg">
<path d="M25.9633 4.5363C25.0299 4.9319 24.0353 5.19412 22.9983 5.32144C24.0651 4.70606 24.8793 3.73903 25.2621 2.57345C24.2675 3.14639 23.1693 3.55109 21.9991 3.77693C21.0547 2.80535 19.7087 2.20361 18.2403 2.20361C15.3915 2.20361 13.098 4.43778 13.098 7.17668C13.098 7.57077 13.1325 7.94969 13.2172 8.31043C8.93921 8.10884 5.15381 6.1278 2.61087 3.11001C2.16691 3.85423 1.9065 4.70606 1.9065 5.62307C1.9065 7.34492 2.82422 8.87125 4.19217 9.75491C3.36544 9.73976 2.55439 9.50785 1.86728 9.14256C1.86728 9.15772 1.86728 9.17742 1.86728 9.19713C1.86728 11.6132 3.65095 13.62 5.98996 14.0823C5.5711 14.1929 5.11459 14.246 4.64083 14.246C4.31139 14.246 3.97882 14.2278 3.66664 14.1611C4.33336 16.13 6.22527 17.5775 8.47486 17.6245C6.72413 18.9477 4.50121 19.745 2.09475 19.745C1.67276 19.745 1.26802 19.7268 0.863281 19.6768C3.14268 21.097 5.84406 21.9079 8.75723 21.9079C18.2262 21.9079 23.4031 14.3293 23.4031 7.76023C23.4031 7.54045 23.3952 7.32825 23.3843 7.11757C24.4055 6.4173 25.2636 5.54274 25.9633 4.5363Z" fill="#B0B8BC"/>
</svg>
