<svg width="103" height="103" viewBox="0 0 103 103" fill="none" xmlns="http://www.w3.org/2000/svg">
<path d="M35.3333 55.5417L47.4583 67.6667L67.6667 39.375M100 51.5C100 57.8691 98.7455 64.1759 96.3082 70.0601C93.8708 75.9444 90.2983 81.291 85.7947 85.7947C81.291 90.2983 75.9444 93.8708 70.0601 96.3082C64.1759 98.7455 57.8691 100 51.5 100C45.1309 100 38.8241 98.7455 32.9399 96.3082C27.0556 93.8708 21.709 90.2983 17.2053 85.7947C12.7017 81.291 9.1292 75.9444 6.69184 70.0601C4.25449 64.1759 3 57.8691 3 51.5C3 38.637 8.10981 26.3008 17.2053 17.2053C26.3008 8.10981 38.637 3 51.5 3C64.363 3 76.6992 8.10981 85.7947 17.2053C94.8902 26.3008 100 38.637 100 51.5Z" stroke="#415A77" stroke-width="5.5" stroke-linecap="round" stroke-linejoin="round"/>
</svg>
