<svg width="27" height="25" viewBox="0 0 27 25" fill="none" xmlns="http://www.w3.org/2000/svg">
<path fill-rule="evenodd" clip-rule="evenodd" d="M22.0725 4.36406C23.5769 4.4459 24.3158 4.66114 24.9966 5.83127C25.7057 6.99989 26.0634 9.01276 26.0634 12.558V12.5626V12.5701C26.0634 16.0987 25.7057 18.1268 24.9982 19.2833C24.3174 20.4534 23.5785 20.6656 22.074 20.7641C20.5696 20.8475 16.7905 20.8975 13.5165 20.8975C10.2363 20.8975 6.45557 20.8475 4.95271 20.7626C3.45142 20.6641 2.71254 20.4519 2.02542 19.2817C1.32419 18.1252 0.963379 16.0972 0.963379 12.5686V12.5656V12.561V12.5565C0.963379 9.01276 1.32419 6.99989 2.02542 5.83127C2.71254 4.65962 3.45299 4.4459 4.95428 4.36254C6.45557 4.26553 10.2363 4.22461 13.5165 4.22461C16.7905 4.22461 20.5696 4.26553 22.0725 4.36406ZM18.2196 12.561L10.3759 8.0139V17.1082L18.2196 12.561Z" fill="#B0B8BC"/>
</svg>
